<svg height="52px" width="52px" viewBox="0 0 22 22" xmlns="http://www.w3.org/2000/svg" class="btn-down">
  <circle cx="11" cy="11" r="11" :fill="currentColor" />
  <path 
    d="M0,11 C0,4.92486745 4.92486745,0 11,0 C17.0751325,0 22,4.92486745 22,11 C22,17.0751325 17.0751325,22 11,22 C4.92486745,22 0,17.0751325 0,11 L0,11 Z M21,11 C21,5.47715225 16.5228478,1 11,1 C5.47715225,1 1,5.47715225 1,11 C1,16.5228478 5.47715225,21 11,21 C16.5228478,21 21,16.5228478 21,11 L21,11 Z M11,16.5 L15,13.5 L15,12.5 L11.4984375,15.25 L11.4984374,5.5 L10.5,5.5 L10.5,15.25 L7,12.5 L7,13.5 L11,16.5 L11,16.5 Z"
    fill="white"
    stroke="none"
    stroke-width="16px"
  />
</svg>
