<?xml version="1.0" encoding="UTF-8"?>
<svg xmlns="http://www.w3.org/2000/svg" xmlns:xlink="http://www.w3.org/1999/xlink" width="2400" height="2400" viewBox="0 0 2400 2400">
<rect x="-240" y="-240" width="2880" height="2880" fill="rgb(100%, 100%, 100%)" fill-opacity="1"/>
<path fill-rule="evenodd" fill="rgb(0%, 0%, 0%)" fill-opacity="1" d="M 1193.269531 479.738281 C 1537.839844 479.738281 1817.179688 759.078125 1817.179688 1103.660156 C 1817.179688 1448.234375 1537.839844 1727.566406 1193.269531 1727.566406 C 848.6875 1727.566406 569.351562 1448.234375 569.351562 1103.660156 C 569.351562 759.078125 848.6875 479.738281 1193.269531 479.738281 "/>
<path fill-rule="evenodd" fill="rgb(90.234375%, 90.234375%, 90.234375%)" fill-opacity="1" d="M 1193.269531 539.898438 C 1504.621094 539.898438 1757.019531 792.300781 1757.019531 1103.660156 C 1757.019531 1415.007812 1504.621094 1667.410156 1193.269531 1667.410156 C 881.914062 1667.410156 629.511719 1415.007812 629.511719 1103.660156 C 629.511719 792.300781 881.914062 539.898438 1193.269531 539.898438 "/>
<path fill-rule="evenodd" fill="rgb(0%, 0%, 0%)" fill-opacity="1" d="M 1004.878906 1830.335938 L 1004.878906 1863.585938 L 1043.550781 1863.585938 C 1043.550781 1867.488281 1043.550781 1871.394531 1043.550781 1875.296875 L 1004.878906 1875.296875 L 1004.878906 1908.546875 L 1043.550781 1908.546875 C 1043.550781 1912.449219 1043.550781 1916.355469 1043.550781 1920.257812 C 1025.761719 1920.257812 1007.96875 1920.257812 990.175781 1920.257812 C 990.175781 1886.378906 990.175781 1852.5 990.175781 1818.621094 C 1007.96875 1818.621094 1025.761719 1818.621094 1043.550781 1818.621094 C 1043.550781 1822.527344 1043.550781 1826.429688 1043.550781 1830.335938 L 1004.878906 1830.335938 "/>
<path fill-rule="evenodd" fill="rgb(0%, 0%, 0%)" fill-opacity="1" d="M 954.003906 1920.257812 C 962.859375 1920.257812 970.09375 1914.496094 970.09375 1907.445312 L 970.09375 1831.351562 C 970.09375 1824.300781 962.859375 1818.535156 954.003906 1818.535156 C 941.515625 1818.535156 929.140625 1818.535156 916.6875 1818.535156 C 916.6875 1852.441406 916.6875 1886.351562 916.6875 1920.257812 C 929.140625 1920.257812 941.515625 1920.257812 954.003906 1920.257812 Z M 931.507812 1830.910156 C 931.691406 1830.570312 932.40625 1830.246094 932.777344 1830.246094 L 954.003906 1830.246094 C 954.671875 1830.246094 955.390625 1830.769531 955.390625 1831.351562 L 955.390625 1907.445312 C 955.390625 1908.066406 954.777344 1908.546875 954.003906 1908.546875 L 932.777344 1908.546875 C 932.226562 1908.546875 931.726562 1908.28125 931.507812 1907.882812 L 931.507812 1830.910156 "/>
<path fill-rule="evenodd" fill="rgb(0%, 0%, 0%)" fill-opacity="1" d="M 1210.160156 1920.257812 C 1219.011719 1920.257812 1226.238281 1914.496094 1226.238281 1907.445312 L 1226.238281 1899.550781 L 1211.539062 1899.550781 L 1211.539062 1907.445312 C 1211.539062 1908.066406 1210.929688 1908.546875 1210.160156 1908.546875 L 1188.929688 1908.546875 C 1188.171875 1908.546875 1187.539062 1908.046875 1187.539062 1907.445312 C 1187.539062 1882.058594 1187.539062 1856.730469 1187.539062 1831.351562 C 1187.539062 1830.726562 1188.148438 1830.246094 1188.929688 1830.246094 L 1210.160156 1830.246094 C 1210.820312 1830.246094 1211.539062 1830.769531 1211.539062 1831.351562 L 1211.539062 1839.246094 L 1226.238281 1839.246094 L 1226.238281 1831.351562 C 1226.238281 1824.300781 1219.011719 1818.535156 1210.160156 1818.535156 L 1188.929688 1818.535156 C 1180.078125 1818.535156 1172.839844 1824.300781 1172.839844 1831.351562 C 1172.839844 1856.714844 1172.839844 1882.082031 1172.839844 1907.445312 C 1172.839844 1914.496094 1180.078125 1920.257812 1188.929688 1920.257812 L 1210.160156 1920.257812 "/>
<path fill-rule="evenodd" fill="rgb(0%, 0%, 0%)" fill-opacity="1" d="M 1080.191406 1920.257812 L 1065.53125 1920.257812 C 1065.53125 1886.378906 1065.53125 1852.5 1065.53125 1818.621094 C 1070.421875 1818.621094 1075.308594 1818.621094 1080.191406 1818.621094 L 1080.191406 1908.585938 L 1118.910156 1908.585938 C 1118.910156 1912.476562 1118.910156 1916.367188 1118.910156 1920.257812 L 1080.191406 1920.257812 "/>
<path fill-rule="evenodd" fill="rgb(0%, 0%, 0%)" fill-opacity="1" d="M 1153.550781 1920.257812 C 1148.671875 1920.257812 1143.78125 1920.257812 1138.898438 1920.257812 C 1138.898438 1886.378906 1138.898438 1852.5 1138.898438 1818.621094 C 1143.78125 1818.621094 1148.671875 1818.621094 1153.550781 1818.621094 C 1153.550781 1852.5 1153.550781 1886.378906 1153.550781 1920.257812 "/>
<path fill-rule="evenodd" fill="rgb(0%, 0%, 0%)" fill-opacity="1" d="M 1382.640625 1920.257812 C 1391.5 1920.257812 1398.730469 1914.496094 1398.730469 1907.445312 L 1398.730469 1818.621094 L 1384.03125 1818.621094 L 1384.03125 1907.445312 C 1384.03125 1908.066406 1383.410156 1908.546875 1382.640625 1908.546875 L 1361.410156 1908.546875 C 1360.660156 1908.546875 1360.03125 1908.046875 1360.03125 1907.445312 L 1360.03125 1818.621094 L 1345.328125 1818.621094 L 1345.328125 1907.445312 C 1345.328125 1914.496094 1352.558594 1920.257812 1361.410156 1920.257812 L 1382.640625 1920.257812 "/>
<path fill-rule="evenodd" fill="rgb(0%, 0%, 0%)" fill-opacity="1" d="M 1258.121094 1920.257812 C 1253.230469 1920.257812 1248.351562 1920.257812 1243.460938 1920.257812 C 1243.460938 1886.378906 1243.460938 1852.5 1243.460938 1818.621094 C 1248.351562 1818.621094 1253.230469 1818.621094 1258.121094 1818.621094 C 1258.121094 1852.5 1258.121094 1886.378906 1258.121094 1920.257812 "/>
<path fill-rule="evenodd" fill="rgb(0%, 0%, 0%)" fill-opacity="1" d="M 1312.230469 1920.257812 C 1321.078125 1920.257812 1328.308594 1914.496094 1328.308594 1907.445312 C 1328.308594 1882.082031 1328.308594 1856.714844 1328.308594 1831.351562 C 1328.308594 1824.300781 1321.078125 1818.535156 1312.230469 1818.535156 L 1291 1818.535156 C 1282.140625 1818.535156 1274.910156 1824.300781 1274.910156 1831.351562 C 1274.910156 1856.714844 1274.910156 1882.082031 1274.910156 1907.445312 C 1274.910156 1914.496094 1282.140625 1920.257812 1291 1920.257812 Z M 1313.609375 1907.445312 C 1313.609375 1908.066406 1313 1908.546875 1312.230469 1908.546875 L 1291 1908.546875 C 1290.238281 1908.546875 1289.609375 1908.046875 1289.609375 1907.445312 C 1289.609375 1882.058594 1289.609375 1856.726562 1289.609375 1831.351562 C 1289.609375 1830.726562 1290.21875 1830.246094 1291 1830.246094 L 1312.230469 1830.246094 C 1312.890625 1830.246094 1313.609375 1830.765625 1313.609375 1831.351562 C 1313.609375 1856.714844 1313.609375 1882.078125 1313.609375 1907.445312 "/>
<path fill-rule="evenodd" fill="rgb(0%, 0%, 0%)" fill-opacity="1" d="M 1453.75 1920.257812 C 1462.609375 1920.257812 1469.839844 1914.496094 1469.839844 1907.445312 L 1469.839844 1863.710938 C 1456.960938 1863.710938 1444.058594 1863.683594 1431.140625 1863.683594 L 1431.140625 1831.351562 C 1431.140625 1830.726562 1431.75 1830.246094 1432.53125 1830.246094 L 1453.75 1830.246094 C 1454.421875 1830.246094 1455.140625 1830.765625 1455.140625 1831.351562 L 1455.140625 1839.246094 L 1469.839844 1839.246094 L 1469.839844 1831.351562 C 1469.839844 1824.300781 1462.609375 1818.535156 1453.75 1818.535156 L 1432.53125 1818.535156 C 1423.671875 1818.535156 1416.441406 1824.300781 1416.441406 1831.351562 L 1416.441406 1875.117188 C 1429.339844 1875.117188 1442.230469 1875.113281 1455.140625 1875.113281 L 1455.140625 1907.445312 C 1455.140625 1908.066406 1454.53125 1908.546875 1453.75 1908.546875 L 1432.53125 1908.546875 C 1431.769531 1908.546875 1431.140625 1908.046875 1431.140625 1907.445312 L 1431.140625 1899.585938 L 1416.441406 1899.585938 L 1416.441406 1907.445312 C 1416.441406 1914.496094 1423.671875 1920.257812 1432.53125 1920.257812 L 1453.75 1920.257812 "/>
<path fill-rule="evenodd" fill="rgb(99.21875%, 50.193787%, 1.179504%)" fill-opacity="1" d="M 1347.238281 1046.449219 C 1319.769531 1048.101562 1290.859375 1048.089844 1261.039062 1047.101562 C 1135.351562 1038.449219 1020.410156 1044.191406 950.113281 1017.140625 C 651.195312 902.128906 1110.058594 657.398438 1385.628906 775.929688 C 1146.761719 702.148438 662.546875 907.640625 1347.238281 1046.449219 "/>
<path fill-rule="evenodd" fill="rgb(50.193787%, 0%, 0%)" fill-opacity="1" d="M 1397.441406 1238.621094 C 1610.609375 1235.558594 1600.828125 1163.359375 1421.539062 1196.398438 C 1341.308594 1213.058594 1241.238281 1219.289062 1150.859375 1208.410156 C 1130.738281 1205.460938 1111.171875 1202.089844 1093.011719 1198.300781 C 1038.460938 1202.21875 981.328125 1199.601562 930.144531 1188.609375 C 920.59375 1186.199219 911.304688 1183.628906 902.398438 1180.898438 C 900.65625 1182.089844 898.945312 1183.308594 897.273438 1184.539062 C 843.730469 1234.648438 1187.75 1239.691406 1397.441406 1238.621094 "/>
<path fill-rule="evenodd" fill="rgb(65.818787%, 0%, 0%)" fill-opacity="1" d="M 1257.648438 1161.761719 C 1311.320312 1161.71875 1369.320312 1157.921875 1421.121094 1149.398438 C 1382.238281 1143.691406 1343.128906 1138.410156 1303.828125 1133.480469 C 1292.328125 1143.878906 1276.578125 1153.390625 1257.648438 1161.761719 "/>
<path fill-rule="evenodd" fill="rgb(100%, 0%, 0%)" fill-opacity="1" d="M 1270.058594 1155.859375 C 1290.28125 1157.320312 1311.671875 1158.441406 1333.949219 1159.191406 C 1363.710938 1157.179688 1393.308594 1153.96875 1421.128906 1149.398438 C 1382.25 1143.691406 1343.140625 1138.410156 1303.828125 1133.480469 C 1294.949219 1141.511719 1283.53125 1149.011719 1270.058594 1155.859375 "/>
<path fill-rule="evenodd" fill="rgb(100%, 0%, 0%)" fill-opacity="1" d="M 1498.328125 1095.679688 L 1451.769531 1143.628906 C 1453.960938 1143.160156 1456.140625 1142.679688 1458.289062 1142.191406 L 1498.730469 1126.140625 C 1518.441406 1112.078125 1508.878906 1097.238281 1498.328125 1095.679688 "/>
<path fill-rule="evenodd" fill="rgb(65.818787%, 0%, 0%)" fill-opacity="1" d="M 1534.289062 1122.050781 C 1479.441406 1162.210938 1304.289062 1189 1156.859375 1173.738281 C 1147.109375 1172.511719 1137.488281 1171.179688 1128.128906 1169.769531 C 1111.261719 1170.539062 1094.300781 1170.710938 1077.550781 1170.410156 C 1146.03125 1200.699219 1380.320312 1205.761719 1512.539062 1157.238281 C 1525.039062 1150.488281 1543.738281 1143.75 1534.289062 1122.050781 "/>
<path fill-rule="evenodd" fill="rgb(100%, 0%, 0%)" fill-opacity="1" d="M 1514.371094 1133.660156 L 1514.300781 1133.699219 C 1513.210938 1134.21875 1512.101562 1134.730469 1510.980469 1135.25 L 1510.828125 1135.320312 C 1509.71875 1135.820312 1508.589844 1136.328125 1507.441406 1136.828125 L 1507.230469 1136.921875 C 1506.089844 1137.410156 1504.929688 1137.898438 1503.75 1138.390625 L 1503.511719 1138.488281 C 1502.328125 1138.980469 1501.128906 1139.460938 1499.910156 1139.941406 L 1499.710938 1140.019531 C 1498.46875 1140.511719 1497.210938 1141 1495.929688 1141.480469 L 1495.851562 1141.511719 C 1483.921875 1146.011719 1470.398438 1150.199219 1455.601562 1154.019531 L 1455.441406 1154.058594 C 1454.011719 1154.429688 1452.558594 1154.789062 1451.101562 1155.160156 C 1450.820312 1155.230469 1450.539062 1155.300781 1450.261719 1155.371094 C 1448.929688 1155.699219 1447.578125 1156.019531 1446.230469 1156.351562 C 1445.820312 1156.441406 1445.410156 1156.539062 1445 1156.640625 C 1443.730469 1156.941406 1442.441406 1157.238281 1441.160156 1157.539062 C 1440.648438 1157.648438 1440.140625 1157.769531 1439.628906 1157.878906 C 1438.398438 1158.171875 1437.160156 1158.441406 1435.910156 1158.71875 C 1435.328125 1158.839844 1434.75 1158.96875 1434.171875 1159.101562 C 1432.96875 1159.359375 1431.769531 1159.621094 1430.558594 1159.871094 C 1429.921875 1160.011719 1429.269531 1160.140625 1428.621094 1160.28125 C 1427.449219 1160.53125 1426.261719 1160.769531 1425.078125 1161.011719 C 1424.371094 1161.148438 1423.660156 1161.300781 1422.941406 1161.441406 C 1421.808594 1161.660156 1420.679688 1161.890625 1419.539062 1162.109375 C 1418.761719 1162.261719 1417.960938 1162.410156 1417.171875 1162.558594 C 1416.070312 1162.769531 1414.960938 1162.980469 1413.851562 1163.191406 C 1413.011719 1163.351562 1412.160156 1163.5 1411.320312 1163.648438 C 1410.25 1163.851562 1409.171875 1164.039062 1408.089844 1164.238281 C 1407.179688 1164.398438 1406.261719 1164.558594 1405.339844 1164.71875 C 1404.320312 1164.898438 1403.289062 1165.078125 1402.261719 1165.25 C 1401.25 1165.421875 1400.230469 1165.589844 1399.210938 1165.761719 C 1398.25 1165.921875 1397.289062 1166.078125 1396.328125 1166.230469 C 1395.210938 1166.421875 1394.089844 1166.589844 1392.96875 1166.769531 C 1392.078125 1166.910156 1391.199219 1167.050781 1390.308594 1167.191406 C 1388.941406 1167.398438 1387.558594 1167.601562 1386.191406 1167.808594 C 1385.539062 1167.910156 1384.898438 1168 1384.25 1168.101562 C 1380.101562 1168.710938 1375.898438 1169.289062 1371.671875 1169.851562 L 1371.410156 1169.890625 C 1369.390625 1170.148438 1367.351562 1170.410156 1365.308594 1170.671875 C 1364.96875 1170.710938 1364.628906 1170.75 1364.289062 1170.789062 C 1362.488281 1171.011719 1360.699219 1171.230469 1358.890625 1171.441406 C 1358.449219 1171.488281 1358.011719 1171.539062 1357.570312 1171.589844 C 1355.859375 1171.789062 1354.140625 1171.988281 1352.421875 1172.179688 C 1351.910156 1172.238281 1351.410156 1172.289062 1350.898438 1172.339844 C 1349.238281 1172.519531 1347.578125 1172.699219 1345.910156 1172.871094 C 1345.359375 1172.929688 1344.808594 1172.988281 1344.261719 1173.039062 C 1342.609375 1173.210938 1340.960938 1173.371094 1339.308594 1173.53125 C 1338.761719 1173.578125 1338.21875 1173.640625 1337.671875 1173.691406 C 1336 1173.851562 1334.328125 1174 1332.648438 1174.148438 L 1331.03125 1174.289062 C 1329.328125 1174.441406 1327.621094 1174.589844 1325.898438 1174.730469 L 1324.429688 1174.851562 C 1322.660156 1174.988281 1320.878906 1175.128906 1319.109375 1175.261719 L 1317.730469 1175.371094 C 1315.898438 1175.5 1314.070312 1175.628906 1312.230469 1175.761719 L 1311.039062 1175.839844 C 1309.101562 1175.96875 1307.148438 1176.089844 1305.199219 1176.210938 L 1304.328125 1176.269531 C 1302.28125 1176.390625 1300.21875 1176.511719 1298.160156 1176.621094 L 1297.53125 1176.660156 C 1274.53125 1177.890625 1251.109375 1178.339844 1227.789062 1177.921875 L 1227.488281 1177.910156 C 1225.269531 1177.871094 1223.058594 1177.820312 1220.839844 1177.769531 L 1220.398438 1177.761719 C 1218.230469 1177.699219 1216.070312 1177.640625 1213.910156 1177.558594 L 1213.648438 1177.558594 L 1213.660156 1177.550781 L 1213.628906 1177.550781 C 1203.730469 1180.441406 1193.371094 1183.078125 1182.660156 1185.460938 C 1268.089844 1206.648438 1578.738281 1154.300781 1523.808594 1128.75 C 1520.871094 1130.410156 1517.71875 1132.050781 1514.371094 1133.660156 "/>
<path fill-rule="evenodd" fill="rgb(0%, 59.959412%, 19.604492%)" fill-opacity="1" d="M 1179.558594 1131.628906 C 1100.128906 1148.941406 988.480469 1145.339844 896.699219 1114.738281 C 893.320312 1113.480469 889.972656 1112.199219 886.664062 1110.898438 C 879.097656 1115.070312 871.472656 1119.71875 864.472656 1125.160156 C 845.90625 1152.210938 1126.710938 1202.109375 1274.148438 1142.589844 C 1279.519531 1140.199219 1294.191406 1135.890625 1297.988281 1132.75 C 1274.570312 1129.828125 1251.078125 1127.03125 1227.519531 1124.339844 L 1227.480469 1124.339844 C 1214.359375 1127.730469 1199.429688 1130.179688 1179.558594 1131.628906 "/>
<path fill-rule="evenodd" fill="rgb(0%, 45.872498%, 23.535156%)" fill-opacity="1" d="M 1135.320312 1138.75 C 1061.769531 1146.859375 972.464844 1140 896.699219 1114.738281 C 893.320312 1113.480469 889.972656 1112.199219 886.664062 1110.898438 C 879.097656 1115.070312 871.472656 1119.71875 864.472656 1125.160156 C 861.605469 1129.328125 865.890625 1134.050781 875.699219 1138.828125 C 947.238281 1151.199219 1050.148438 1156.378906 1135.320312 1138.75 "/>
<path fill-rule="evenodd" fill="rgb(65.818787%, 0%, 0%)" fill-opacity="1" d="M 894.261719 1091.429688 C 942.976562 1109.359375 1057.71875 1125.539062 1158.980469 1116.820312 C 1073.339844 1107.769531 987.046875 1099.898438 900.546875 1092.449219 L 902.242188 1091.980469 C 899.492188 1091.859375 896.835938 1091.671875 894.261719 1091.429688 "/>
<path fill-rule="evenodd" fill="rgb(0%, 59.959412%, 19.604492%)" fill-opacity="1" d="M 1220.921875 1053.078125 L 1220.898438 1053.070312 C 1187.410156 1053.121094 1151.671875 1052.21875 1115.859375 1050.238281 C 1116.269531 1050.480469 1116.679688 1050.730469 1117.101562 1050.96875 C 1117.441406 1051.179688 1117.78125 1051.378906 1118.121094 1051.589844 C 1118.921875 1052.070312 1119.71875 1052.550781 1120.519531 1053.050781 L 1121.398438 1053.589844 C 1122.261719 1054.121094 1123.121094 1054.660156 1123.980469 1055.210938 L 1124.710938 1055.671875 C 1125.640625 1056.261719 1126.570312 1056.859375 1127.5 1057.46875 L 1128.050781 1057.828125 C 1129.058594 1058.488281 1130.070312 1059.160156 1131.089844 1059.839844 L 1131.410156 1060.058594 C 1132.488281 1060.789062 1133.589844 1061.53125 1134.679688 1062.28125 L 1134.859375 1062.410156 C 1136 1063.179688 1137.140625 1063.980469 1138.28125 1064.78125 L 1138.339844 1064.820312 L 1138.371094 1064.839844 L 1138.390625 1064.859375 C 1139.570312 1065.691406 1140.761719 1066.53125 1141.949219 1067.390625 L 1141.96875 1067.398438 C 1143.171875 1068.261719 1144.390625 1069.140625 1145.609375 1070.039062 C 1146.390625 1070.398438 1147.148438 1070.738281 1147.921875 1071.070312 C 1148.101562 1071.148438 1148.28125 1071.230469 1148.460938 1071.308594 C 1149.160156 1071.609375 1149.859375 1071.898438 1150.550781 1072.171875 C 1150.78125 1072.261719 1151.011719 1072.351562 1151.25 1072.441406 C 1151.71875 1072.628906 1152.191406 1072.800781 1152.648438 1072.96875 C 1153.121094 1073.140625 1153.578125 1073.308594 1154.039062 1073.460938 C 1154.398438 1073.578125 1154.75 1073.699219 1155.101562 1073.820312 C 1155.519531 1073.960938 1155.949219 1074.089844 1156.371094 1074.21875 L 1156.628906 1074.300781 C 1161.460938 1075.75 1165.980469 1076.53125 1170.25 1076.75 L 1170.328125 1076.761719 C 1170.871094 1076.78125 1171.410156 1076.800781 1171.949219 1076.808594 C 1172.308594 1076.808594 1172.679688 1076.820312 1173.03125 1076.808594 C 1173.210938 1076.808594 1173.378906 1076.808594 1173.550781 1076.808594 C 1192.53125 1076.410156 1205.980469 1064.488281 1220.898438 1053.101562 L 1220.921875 1053.078125 "/>
<path fill-rule="evenodd" fill="rgb(19.604492%, 80.076599%, 19.604492%)" fill-opacity="1" d="M 1462.5 1053.070312 C 1455.28125 1055.800781 1446.050781 1057.839844 1434.351562 1058.910156 C 1417.53125 1059.601562 1405.71875 1057.558594 1396.949219 1054.050781 C 1381.570312 1054.648438 1365.269531 1055.140625 1348.261719 1055.511719 C 1351.03125 1058.199219 1353.640625 1060.921875 1356.289062 1063.550781 L 1356.539062 1063.800781 L 1356.789062 1064.039062 L 1357.261719 1064.511719 L 1357.289062 1064.53125 L 1357.539062 1064.78125 L 1357.761719 1065 L 1357.789062 1065.019531 L 1358 1065.230469 L 1358.039062 1065.261719 L 1358.289062 1065.511719 L 1358.46875 1065.679688 L 1358.539062 1065.75 L 1358.738281 1065.941406 L 1358.789062 1065.988281 L 1359.050781 1066.230469 L 1359.121094 1066.300781 L 1359.300781 1066.46875 L 1359.488281 1066.648438 L 1359.550781 1066.710938 L 1359.808594 1066.941406 L 1359.871094 1067 L 1359.878906 1067.019531 L 1360.21875 1067.328125 L 1360.25 1067.351562 L 1360.320312 1067.421875 L 1360.578125 1067.648438 L 1360.730469 1067.789062 L 1360.929688 1067.96875 L 1361.050781 1068.078125 L 1361.351562 1068.351562 L 1361.410156 1068.410156 L 1361.738281 1068.699219 L 1361.800781 1068.75 L 1362.128906 1069.039062 L 1362.171875 1069.070312 L 1362.519531 1069.378906 L 1362.589844 1069.429688 L 1362.929688 1069.71875 L 1362.949219 1069.738281 L 1363.320312 1070.050781 L 1363.371094 1070.101562 L 1363.730469 1070.390625 L 1363.761719 1070.421875 L 1364.109375 1070.710938 L 1364.160156 1070.75 C 1364.289062 1070.851562 1364.410156 1070.949219 1364.539062 1071.058594 C 1365.011719 1071.441406 1365.480469 1071.808594 1365.960938 1072.179688 C 1366.128906 1072.308594 1366.320312 1072.441406 1366.5 1072.570312 C 1366.800781 1072.800781 1367.101562 1073.019531 1367.410156 1073.238281 C 1367.609375 1073.378906 1367.820312 1073.519531 1368.019531 1073.660156 C 1368.308594 1073.851562 1368.601562 1074.050781 1368.898438 1074.238281 C 1369.121094 1074.390625 1369.339844 1074.519531 1369.558594 1074.660156 C 1369.851562 1074.839844 1370.128906 1075.019531 1370.421875 1075.191406 C 1370.648438 1075.328125 1370.878906 1075.460938 1371.121094 1075.589844 C 1371.398438 1075.75 1371.679688 1075.921875 1371.96875 1076.078125 C 1372.210938 1076.210938 1372.449219 1076.328125 1372.691406 1076.460938 C 1372.980469 1076.609375 1373.261719 1076.761719 1373.539062 1076.898438 C 1373.789062 1077.03125 1374.039062 1077.148438 1374.289062 1077.269531 C 1374.578125 1077.410156 1374.859375 1077.539062 1375.148438 1077.679688 C 1375.410156 1077.800781 1375.671875 1077.910156 1375.929688 1078.019531 C 1376.210938 1078.148438 1376.488281 1078.269531 1376.78125 1078.390625 C 1377.039062 1078.5 1377.308594 1078.609375 1377.589844 1078.71875 C 1377.871094 1078.828125 1378.148438 1078.941406 1378.429688 1079.050781 C 1378.710938 1079.160156 1378.980469 1079.25 1379.25 1079.351562 C 1379.539062 1079.460938 1379.828125 1079.558594 1380.121094 1079.660156 C 1380.390625 1079.761719 1380.660156 1079.839844 1380.941406 1079.929688 C 1381.230469 1080.03125 1381.53125 1080.128906 1381.820312 1080.21875 C 1382.089844 1080.300781 1382.371094 1080.378906 1382.640625 1080.460938 C 1382.941406 1080.550781 1383.25 1080.640625 1383.550781 1080.71875 C 1383.820312 1080.789062 1384.101562 1080.871094 1384.371094 1080.941406 C 1384.679688 1081.011719 1384.980469 1081.089844 1385.28125 1081.171875 C 1385.570312 1081.230469 1385.851562 1081.300781 1386.128906 1081.359375 C 1386.441406 1081.429688 1386.738281 1081.5 1387.039062 1081.558594 C 1387.320312 1081.621094 1387.609375 1081.679688 1387.890625 1081.730469 C 1388.199219 1081.789062 1388.511719 1081.851562 1388.808594 1081.910156 C 1389.101562 1081.960938 1389.390625 1082.011719 1389.679688 1082.058594 C 1389.988281 1082.109375 1390.289062 1082.160156 1390.601562 1082.199219 C 1390.890625 1082.25 1391.179688 1082.289062 1391.460938 1082.328125 C 1391.78125 1082.371094 1392.089844 1082.410156 1392.398438 1082.449219 C 1392.691406 1082.488281 1392.980469 1082.519531 1393.269531 1082.550781 C 1393.589844 1082.589844 1393.898438 1082.621094 1394.21875 1082.648438 C 1394.511719 1082.679688 1394.789062 1082.699219 1395.078125 1082.730469 C 1395.410156 1082.761719 1395.730469 1082.78125 1396.058594 1082.800781 C 1396.339844 1082.820312 1396.621094 1082.839844 1396.890625 1082.859375 C 1397.230469 1082.871094 1397.558594 1082.890625 1397.898438 1082.898438 C 1398.171875 1082.921875 1398.449219 1082.929688 1398.730469 1082.941406 C 1399.070312 1082.949219 1399.410156 1082.949219 1399.75 1082.960938 C 1400.019531 1082.960938 1400.289062 1082.96875 1400.558594 1082.96875 C 1400.910156 1082.96875 1401.261719 1082.96875 1401.609375 1082.96875 C 1401.871094 1082.96875 1402.128906 1082.96875 1402.398438 1082.960938 C 1402.75 1082.949219 1403.109375 1082.941406 1403.46875 1082.929688 C 1403.730469 1082.921875 1403.980469 1082.921875 1404.238281 1082.910156 C 1404.621094 1082.890625 1405 1082.871094 1405.390625 1082.851562 C 1405.609375 1082.828125 1405.839844 1082.820312 1406.070312 1082.808594 C 1406.46875 1082.78125 1406.878906 1082.75 1407.28125 1082.71875 C 1407.5 1082.699219 1407.710938 1082.679688 1407.921875 1082.671875 C 1408.351562 1082.628906 1408.78125 1082.578125 1409.199219 1082.539062 C 1409.390625 1082.519531 1409.570312 1082.5 1409.761719 1082.480469 C 1410.25 1082.429688 1410.738281 1082.371094 1411.230469 1082.300781 C 1411.351562 1082.289062 1411.46875 1082.269531 1411.589844 1082.261719 C 1415.921875 1081.671875 1420.21875 1080.75 1424.378906 1079.519531 L 1424.558594 1079.46875 C 1425.089844 1079.308594 1425.621094 1079.148438 1426.148438 1078.980469 L 1426.378906 1078.910156 C 1426.890625 1078.738281 1427.398438 1078.578125 1427.898438 1078.410156 L 1428.171875 1078.308594 C 1428.660156 1078.140625 1429.160156 1077.96875 1429.648438 1077.789062 L 1429.898438 1077.699219 C 1430.390625 1077.519531 1430.878906 1077.328125 1431.359375 1077.140625 L 1431.628906 1077.039062 C 1432.109375 1076.851562 1432.589844 1076.660156 1433.058594 1076.460938 L 1433.320312 1076.351562 C 1433.800781 1076.148438 1434.269531 1075.949219 1434.738281 1075.738281 L 1434.988281 1075.628906 C 1435.460938 1075.421875 1435.929688 1075.210938 1436.390625 1075 L 1436.640625 1074.878906 C 1437.101562 1074.660156 1437.558594 1074.441406 1438.019531 1074.210938 L 1438.238281 1074.101562 C 1438.699219 1073.871094 1439.160156 1073.640625 1439.621094 1073.398438 L 1439.828125 1073.289062 C 1440.289062 1073.050781 1440.738281 1072.800781 1441.191406 1072.550781 L 1441.378906 1072.449219 C 1441.839844 1072.191406 1442.289062 1071.941406 1442.730469 1071.679688 L 1442.910156 1071.578125 C 1443.359375 1071.308594 1443.808594 1071.039062 1444.25 1070.769531 L 1444.390625 1070.679688 C 1444.839844 1070.398438 1445.300781 1070.121094 1445.738281 1069.828125 L 1445.839844 1069.761719 C 1446.300781 1069.460938 1446.75 1069.160156 1447.199219 1068.851562 L 1447.25 1068.808594 C 1447.710938 1068.5 1448.171875 1068.171875 1448.621094 1067.851562 L 1448.628906 1067.839844 C 1454.550781 1063.539062 1459.359375 1058.53125 1462.5 1053.070312 "/>
<path fill-rule="evenodd" fill="rgb(100%, 80.076599%, 0%)" fill-opacity="1" d="M 962.472656 1083.839844 C 1124.78125 1090.671875 1278.808594 1106.96875 1424.808594 1132.449219 L 1509.761719 1059.210938 L 1481.199219 1040.089844 C 1478.621094 1043.601562 1474.960938 1046.859375 1469.898438 1049.679688 C 1471.890625 1068.960938 1465.230469 1095.300781 1414.398438 1097.648438 C 1339.53125 1104.929688 1318.710938 1055 1275.300781 1052.109375 C 1272.039062 1052.230469 1268.738281 1052.328125 1265.398438 1052.429688 C 1256.871094 1053.539062 1247.621094 1056.878906 1237.210938 1063.289062 C 1233.921875 1065.320312 1230.511719 1067.648438 1226.980469 1070.320312 L 1226.859375 1070.421875 C 1188.011719 1104.96875 1143.75 1103.101562 1098.949219 1071.691406 C 1093.730469 1066.378906 1086.890625 1062.320312 1079.101562 1059.328125 C 1072.691406 1056.878906 1065.640625 1055.148438 1058.308594 1054.058594 C 1041.03125 1052.351562 1028.199219 1054.679688 1016.691406 1058.921875 C 999.238281 1065.339844 984.808594 1076.128906 962.472656 1083.839844 "/>
<path fill-rule="evenodd" fill="rgb(96.09375%, 63.867188%, 0%)" fill-opacity="1" d="M 962.472656 1083.839844 C 1055.738281 1087.761719 1146.28125 1094.820312 1234.128906 1104.941406 C 1275.300781 1099.640625 1310.308594 1090.871094 1335.039062 1079.871094 C 1314.109375 1067.640625 1297.71875 1053.609375 1275.300781 1052.109375 C 1272.039062 1052.230469 1268.738281 1052.328125 1265.398438 1052.429688 C 1256.871094 1053.539062 1247.621094 1056.878906 1237.210938 1063.289062 C 1233.921875 1065.320312 1230.511719 1067.648438 1226.980469 1070.320312 L 1226.859375 1070.421875 C 1188.011719 1104.96875 1143.75 1103.101562 1098.949219 1071.691406 C 1093.730469 1066.378906 1086.890625 1062.320312 1079.101562 1059.328125 C 1072.691406 1056.878906 1065.640625 1055.148438 1058.308594 1054.058594 C 1041.03125 1052.351562 1028.199219 1054.679688 1016.691406 1058.921875 C 999.238281 1065.339844 984.808594 1076.128906 962.472656 1083.839844 "/>
<path fill-rule="evenodd" fill="rgb(0%, 45.872498%, 23.535156%)" fill-opacity="1" d="M 991.980469 1038.378906 C 947.496094 1031.929688 907.796875 1023.160156 878.453125 1011.738281 C 873.347656 1025.550781 867.199219 1042.359375 867.910156 1049.480469 C 870.074219 1071.121094 914.386719 1074.488281 945.226562 1063.261719 C 962.121094 1052.738281 977.472656 1044.390625 991.980469 1038.378906 "/>
<path fill-rule="evenodd" fill="rgb(100%, 61.914062%, 23.535156%)" fill-opacity="1" d="M 1361.339844 776.28125 C 1338.691406 770.03125 1314.320312 764.800781 1288.589844 760.71875 C 1056.679688 752.300781 775.523438 908.621094 1267.039062 1028.628906 C 1313.300781 1029.820312 1355.800781 1030.070312 1387.191406 1029.261719 C 1567.179688 1038.761719 1544.359375 939.980469 1529.320312 906.671875 C 1500.101562 841.941406 1460.261719 807.078125 1361.339844 776.28125 "/>
<path fill-rule="evenodd" fill="rgb(100%, 70.506287%, 41.184998%)" fill-opacity="1" d="M 1417.699219 1029.828125 C 1564.429688 1027.03125 1543.449219 937.960938 1529.320312 906.671875 C 1504.710938 852.148438 1472.558594 818.828125 1403.941406 791.269531 C 1253.261719 797.671875 1135.890625 848.53125 1135.890625 910.320312 C 1135.890625 973.980469 1260.46875 1026.03125 1417.699219 1029.828125 "/>
<path fill-rule="evenodd" fill="rgb(0%, 45.872498%, 23.535156%)" fill-opacity="1" d="M 997.9375 1254.871094 C 952.886719 1252.230469 916.503906 1246.851562 889.195312 1239.410156 C 886.761719 1246.660156 885.128906 1253.070312 885.53125 1256.808594 C 887.855469 1278.449219 935.472656 1281.820312 968.613281 1270.589844 C 978.871094 1264.648438 988.601562 1259.398438 997.9375 1254.871094 "/>
<path fill-rule="evenodd" fill="rgb(0%, 59.959412%, 19.604492%)" fill-opacity="1" d="M 1148.269531 1255.570312 C 1159.511719 1261.519531 1171.328125 1268.769531 1183.949219 1277.371094 C 1227.089844 1296.128906 1246.578125 1271.828125 1273.628906 1254.449219 C 1266.261719 1254.761719 1258.71875 1255.078125 1251.011719 1255.410156 C 1219.558594 1256.730469 1185.441406 1255.800781 1148.269531 1255.570312 "/>
<path fill-rule="evenodd" fill="rgb(19.604492%, 80.076599%, 19.604492%)" fill-opacity="1" d="M 1383.601562 1249.660156 C 1399.179688 1258 1407.5 1269.660156 1419.210938 1278.390625 C 1457.621094 1307.859375 1534.589844 1277.691406 1528.488281 1242.179688 C 1503.78125 1243.898438 1457.449219 1246.320312 1383.601562 1249.660156 "/>
<path fill-rule="evenodd" fill="rgb(99.21875%, 50.193787%, 1.179504%)" fill-opacity="1" d="M 1303.511719 1369.671875 C 1153.671875 1369.671875 1032.191406 1331.660156 1032.191406 1284.78125 C 1032.191406 1279.628906 1033.660156 1274.589844 1036.460938 1269.699219 C 1014.519531 1279.019531 994.558594 1293.03125 955.335938 1298.230469 C 942.675781 1299.441406 931.28125 1299.730469 921.058594 1299.261719 C 928.996094 1317.769531 944.632812 1334.488281 976.632812 1346.171875 C 1024.589844 1378.558594 1253.28125 1391.75 1397.769531 1364.398438 C 1368.410156 1367.808594 1336.648438 1369.671875 1303.511719 1369.671875 "/>
<path fill-rule="evenodd" fill="rgb(100%, 61.914062%, 23.535156%)" fill-opacity="1" d="M 1032.191406 1284.78125 C 1032.191406 1330.351562 1146.949219 1367.53125 1290.980469 1369.578125 C 1422.28125 1367.53125 1526.898438 1330.351562 1526.898438 1284.78125 C 1526.898438 1284.351562 1526.890625 1283.929688 1526.878906 1283.5 C 1519.46875 1294.601562 1503.761719 1303.648438 1472.789062 1304.980469 C 1370.160156 1316.601562 1352.960938 1220.441406 1271.378906 1277.648438 L 1271.261719 1277.761719 C 1229.5 1312.300781 1181.949219 1310.429688 1133.800781 1279.019531 C 1123.578125 1269.351562 1107.570312 1263.808594 1090.140625 1261.390625 C 1066.980469 1259.261719 1051.269531 1263.410156 1036.460938 1269.699219 C 1033.660156 1274.589844 1032.191406 1279.628906 1032.191406 1284.78125 "/>
<path fill-rule="evenodd" fill="rgb(65.818787%, 0%, 0%)" fill-opacity="1" d="M 1510.238281 1227.550781 C 1596.988281 1207.789062 1559.378906 1171.019531 1421.660156 1196.371094 C 1341.410156 1213.058594 1241.28125 1219.289062 1150.859375 1208.410156 C 1130.75 1205.460938 1111.191406 1202.089844 1093.039062 1198.308594 C 1084.101562 1198.949219 1075.078125 1199.421875 1066.03125 1199.699219 C 1138.5 1222.480469 1241.550781 1236.71875 1355.890625 1236.71875 C 1410.628906 1236.71875 1462.789062 1233.460938 1510.238281 1227.550781 "/>
<path fill-rule="evenodd" fill="rgb(100%, 100%, 59.959412%)" fill-opacity="1" d="M 1025.101562 859.640625 C 1030.351562 859.640625 1034.609375 863 1034.609375 867.148438 C 1034.609375 871.300781 1030.351562 874.660156 1025.101562 874.660156 C 1019.839844 874.660156 1015.578125 871.300781 1015.578125 867.148438 C 1015.578125 863 1019.839844 859.640625 1025.101562 859.640625 "/>
<path fill-rule="evenodd" fill="rgb(100%, 100%, 59.959412%)" fill-opacity="1" d="M 1166.070312 806.578125 C 1170.558594 809.011719 1173.300781 812.660156 1172.179688 814.730469 C 1171.058594 816.800781 1166.511719 816.5 1162.011719 814.058594 C 1157.511719 811.628906 1154.769531 807.980469 1155.890625 805.910156 C 1157.011719 803.839844 1161.570312 804.140625 1166.070312 806.578125 "/>
<path fill-rule="evenodd" fill="rgb(100%, 100%, 59.959412%)" fill-opacity="1" d="M 1108.960938 847.121094 C 1112.96875 847.121094 1116.21875 849.699219 1116.21875 852.878906 C 1116.21875 856.058594 1112.96875 858.640625 1108.960938 858.640625 C 1104.949219 858.640625 1101.699219 856.058594 1101.699219 852.878906 C 1101.699219 849.699219 1104.949219 847.121094 1108.960938 847.121094 "/>
<path fill-rule="evenodd" fill="rgb(100%, 100%, 59.959412%)" fill-opacity="1" d="M 1101.699219 902.199219 C 1105.851562 902.199219 1109.210938 903.648438 1109.210938 905.449219 C 1109.210938 907.25 1105.851562 908.710938 1101.699219 908.710938 C 1097.550781 908.710938 1094.191406 907.25 1094.191406 905.449219 C 1094.191406 903.648438 1097.550781 902.199219 1101.699219 902.199219 "/>
<path fill-rule="evenodd" fill="rgb(100%, 100%, 59.959412%)" fill-opacity="1" d="M 1303.480469 821.589844 C 1309.839844 821.589844 1315 824.390625 1315 827.839844 C 1315 831.300781 1309.839844 834.101562 1303.480469 834.101562 C 1297.121094 834.101562 1291.96875 831.300781 1291.96875 827.839844 C 1291.96875 824.390625 1297.121094 821.589844 1303.480469 821.589844 "/>
<path fill-rule="evenodd" fill="rgb(100%, 100%, 59.959412%)" fill-opacity="1" d="M 1415.941406 859.21875 C 1424.648438 864.589844 1430.011719 871.710938 1427.898438 875.121094 C 1425.800781 878.53125 1417.03125 876.949219 1408.320312 871.578125 C 1399.609375 866.210938 1394.261719 859.089844 1396.359375 855.671875 C 1398.46875 852.261719 1407.230469 853.851562 1415.941406 859.21875 "/>
<path fill-rule="evenodd" fill="rgb(100%, 100%, 59.959412%)" fill-opacity="1" d="M 1002.070312 800.050781 C 1014.789062 800.050781 1025.101562 804.988281 1025.101562 811.070312 C 1025.101562 817.148438 1014.789062 822.078125 1002.070312 822.078125 C 989.34375 822.078125 979.035156 817.148438 979.035156 811.070312 C 979.035156 804.988281 989.34375 800.050781 1002.070312 800.050781 "/>
<path fill-rule="evenodd" fill="rgb(100%, 100%, 59.959412%)" fill-opacity="1" d="M 1484.230469 909.210938 C 1489.488281 909.210938 1493.75 911.21875 1493.75 913.710938 C 1493.75 916.199219 1489.488281 918.21875 1484.230469 918.21875 C 1478.980469 918.21875 1474.71875 916.199219 1474.71875 913.710938 C 1474.71875 911.21875 1478.980469 909.210938 1484.230469 909.210938 "/>
<path fill-rule="evenodd" fill="rgb(100%, 100%, 59.959412%)" fill-opacity="1" d="M 1360.210938 808.558594 C 1362.519531 810.089844 1363.648438 812.449219 1362.738281 813.828125 C 1361.820312 815.210938 1359.210938 815.101562 1356.898438 813.578125 C 1354.589844 812.050781 1353.46875 809.691406 1354.378906 808.308594 C 1355.289062 806.929688 1357.910156 807.039062 1360.210938 808.558594 "/>
<path fill-rule="evenodd" fill="rgb(100%, 100%, 59.959412%)" fill-opacity="1" d="M 968.519531 925.230469 C 975.429688 925.230469 981.035156 927.46875 981.035156 930.238281 C 981.035156 933 975.429688 935.238281 968.519531 935.238281 C 961.605469 935.238281 956 933 956 930.238281 C 956 927.46875 961.605469 925.230469 968.519531 925.230469 "/>
<path fill-rule="evenodd" fill="rgb(100%, 100%, 59.959412%)" fill-opacity="1" d="M 1100.648438 1310.929688 C 1107.011719 1310.929688 1112.171875 1313.730469 1112.171875 1317.191406 C 1112.171875 1320.648438 1107.011719 1323.449219 1100.648438 1323.449219 C 1094.289062 1323.449219 1089.128906 1320.648438 1089.128906 1317.191406 C 1089.128906 1313.730469 1094.289062 1310.929688 1100.648438 1310.929688 "/>
<path fill-rule="evenodd" fill="rgb(100%, 100%, 59.959412%)" fill-opacity="1" d="M 1213.109375 1348.558594 C 1221.820312 1353.929688 1227.171875 1361.050781 1225.070312 1364.460938 C 1222.96875 1367.878906 1214.199219 1366.289062 1205.488281 1360.921875 C 1196.78125 1355.550781 1191.429688 1348.429688 1193.53125 1345.019531 C 1195.628906 1341.609375 1204.398438 1343.191406 1213.109375 1348.558594 "/>
<path fill-rule="evenodd" fill="rgb(100%, 100%, 59.959412%)" fill-opacity="1" d="M 1340.789062 1326.03125 C 1346.039062 1326.03125 1350.300781 1328.050781 1350.300781 1330.539062 C 1350.300781 1333.03125 1346.039062 1335.039062 1340.789062 1335.039062 C 1335.53125 1335.039062 1331.269531 1333.03125 1331.269531 1330.539062 C 1331.269531 1328.050781 1335.53125 1326.03125 1340.789062 1326.03125 "/>
<path fill-rule="evenodd" fill="rgb(100%, 100%, 59.959412%)" fill-opacity="1" d="M 1157.378906 1297.910156 C 1159.691406 1299.429688 1160.820312 1301.789062 1159.898438 1303.179688 C 1158.988281 1304.558594 1156.378906 1304.449219 1154.070312 1302.921875 C 1151.761719 1301.398438 1150.628906 1299.039062 1151.550781 1297.660156 C 1152.460938 1296.269531 1155.070312 1296.390625 1157.378906 1297.910156 "/>
<path fill-rule="evenodd" fill="rgb(0%, 0%, 0%)" fill-opacity="1" d="M 1184.949219 1408.863281 C 1189.050781 1395.320312 1196.511719 1382.878906 1206.800781 1372.679688 C 1223.121094 1356.519531 1245.140625 1347.429688 1268.230469 1347.429688 L 1326.359375 1347.429688 C 1349.441406 1347.429688 1371.46875 1356.519531 1387.789062 1372.679688 C 1396.269531 1381.078125 1402.820312 1391.011719 1407.160156 1401.820312 L 1407.160156 1347.71875 C 1528.089844 1347.71875 1648.339844 1347.429688 1769.160156 1347.429688 C 1792.140625 1347.429688 1814.058594 1356.480469 1830.300781 1372.558594 C 1846.539062 1388.648438 1855.679688 1410.363281 1855.679688 1433.125 L 1855.679688 1539.320312 C 1855.679688 1560.167969 1848.210938 1579.628906 1834.050781 1595.035156 C 1830.851562 1598.515625 1827.378906 1601.703125 1823.679688 1604.601562 L 1883.828125 1842.507812 L 1825.199219 1829.746094 C 1684.789062 1799.1875 1550.449219 1792.644531 1407.160156 1783 L 1407.160156 1726.261719 C 1402.820312 1737.070312 1396.269531 1746.996094 1387.789062 1755.398438 C 1371.46875 1771.5625 1349.441406 1780.652344 1326.359375 1780.652344 L 1325.738281 1780.652344 L 1267.539062 1778.746094 C 1219.960938 1778.375 1181.300781 1739.855469 1181.300781 1692.648438 L 1181.300781 1573.257812 C 1177.761719 1581.117188 1172.929688 1588.449219 1166.871094 1595.035156 C 1163.609375 1598.585938 1160.058594 1601.832031 1156.289062 1604.773438 L 1187.550781 1733.292969 L 1198.609375 1778.75 C 1115.511719 1778.75 1039.578125 1780.640625 957.164062 1783.816406 L 957.164062 1746.367188 C 953.542969 1752.304688 949.183594 1757.839844 944.140625 1762.832031 C 930.710938 1776.136719 913.28125 1784.753906 894.453125 1787.296875 L 893.121094 1787.476562 L 891.777344 1787.5625 C 870.347656 1788.902344 848.945312 1790.570312 827.53125 1792.113281 L 825.945312 1792.226562 L 824.597656 1792.226562 C 789.460938 1792.226562 759.09375 1771.417969 745.40625 1741.601562 C 741.839844 1757.316406 733.832031 1771.820312 722.132812 1783.40625 C 706.734375 1798.660156 686.226562 1807.582031 664.550781 1808.464844 C 608.3125 1818.335938 571.507812 1823.296875 516.453125 1842.554688 L 516.171875 1347.449219 C 564.460938 1347.449219 612.722656 1347.429688 660.992188 1347.429688 C 683.972656 1347.429688 705.894531 1356.480469 722.132812 1372.558594 C 728.410156 1378.78125 733.621094 1385.828125 737.65625 1393.460938 L 737.65625 1347.71875 C 859.308594 1347.71875 980.480469 1347.429688 1101.980469 1347.429688 C 1124.960938 1347.429688 1146.890625 1356.480469 1163.128906 1372.558594 C 1173.441406 1382.78125 1180.890625 1395.28125 1184.949219 1408.863281 Z M 1624.339844 1625.648438 L 1533.191406 1625.648438 L 1533.191406 1664.335938 L 1598.160156 1671.257812 L 1624.339844 1671.257812 Z M 1624.339844 1500.816406 L 1624.339844 1472.550781 L 1533.191406 1472.550781 L 1533.191406 1500.816406 L 1624.339844 1500.816406 "/>
<path fill-rule="evenodd" fill="rgb(100%, 100%, 100%)" fill-opacity="1" d="M 1496 1435.71875 L 1496 1537.648438 L 1601.859375 1537.648438 L 1601.859375 1588.820312 L 1496 1588.820312 L 1496 1697.417969 L 1596.171875 1708.089844 L 1601.859375 1708.085938 L 1601.859375 1760.066406 L 1600.738281 1760.066406 C 1557.710938 1755.960938 1511.96875 1752.476562 1464.050781 1749.691406 L 1450.039062 1748.589844 L 1444.339844 1748.589844 L 1444.339844 1384.550781 L 1601.859375 1384.550781 L 1601.859375 1435.71875 Z M 1712.199219 1588.1875 L 1712.199219 1772.90625 C 1695.878906 1770.660156 1678.988281 1768.511719 1661.519531 1766.476562 L 1661.519531 1384.261719 L 1769.160156 1384.261719 C 1782.738281 1384.261719 1795.070312 1389.75 1804.011719 1398.609375 C 1812.949219 1407.457031 1818.488281 1419.675781 1818.488281 1433.125 L 1818.488281 1539.320312 C 1818.488281 1551.78125 1813.949219 1562.191406 1806.558594 1570.238281 C 1799.820312 1577.558594 1790.738281 1582.84375 1780.609375 1585.847656 L 1833.179688 1793.777344 C 1816.160156 1790.074219 1797.859375 1786.523438 1778.390625 1783.140625 L 1729.101562 1588.1875 Z M 1767.820312 1537.992188 L 1767.820312 1434.433594 L 1712.191406 1434.449219 L 1712.179688 1537.992188 Z M 917.851562 1736.789062 C 910.339844 1744.230469 900.445312 1749.316406 889.429688 1750.804688 C 867.398438 1752.183594 845.839844 1753.710938 824.835938 1755.378906 L 824.597656 1755.398438 C 797.222656 1755.398438 774.851562 1733.234375 774.851562 1706.121094 L 774.839844 1390.191406 L 774.839844 1384.550781 L 826.492188 1384.550781 L 826.492188 1390.191406 L 826.503906 1704.230469 L 880.800781 1700.09375 L 880.800781 1384.550781 L 932.453125 1384.550781 L 932.453125 1701.984375 C 932.453125 1715.546875 926.863281 1727.863281 917.851562 1736.789062 Z M 1045.019531 1588.1875 L 1045.019531 1743.839844 L 1039.328125 1743.839844 L 1038.441406 1744.035156 C 1023.589844 1744.46875 1008.890625 1744.96875 994.34375 1745.527344 L 994.34375 1384.261719 L 1101.980469 1384.261719 C 1115.558594 1384.261719 1127.898438 1389.75 1136.828125 1398.609375 C 1145.769531 1407.457031 1151.320312 1419.675781 1151.320312 1433.125 L 1151.320312 1539.320312 C 1151.320312 1551.78125 1146.78125 1562.191406 1139.378906 1570.238281 C 1132.648438 1577.558594 1123.558594 1582.84375 1113.441406 1585.847656 L 1149.710938 1734.976562 L 1151.398438 1741.921875 L 1099.320312 1741.921875 L 1098.261719 1737.578125 L 1061.929688 1588.1875 Z M 1100.640625 1537.992188 L 1100.640625 1434.433594 L 1045.019531 1434.449219 L 1045 1537.992188 Z M 553.355469 1783.953125 L 553.355469 1384.28125 L 660.992188 1384.28125 L 660.992188 1384.261719 C 674.570312 1384.261719 686.90625 1389.75 695.84375 1398.609375 C 704.78125 1407.460938 710.328125 1419.675781 710.328125 1433.125 L 710.328125 1539.324219 C 710.328125 1544.398438 709.546875 1549.183594 708.101562 1553.652344 C 707.011719 1557.03125 705.554688 1560.179688 703.78125 1563.089844 C 705.554688 1566 707.011719 1569.148438 708.101562 1572.527344 C 709.546875 1576.996094 710.328125 1581.78125 710.328125 1586.855469 L 710.328125 1722.84375 C 710.328125 1736.292969 704.78125 1748.511719 695.84375 1757.363281 C 686.90625 1766.214844 674.570312 1771.710938 660.992188 1771.710938 L 660.992188 1771.6875 L 626.382812 1777.761719 C 602.335938 1781.46875 579.792969 1785.414062 558.921875 1789.574219 L 553.355469 1789.574219 Z M 659.648438 1588.1875 L 604.011719 1588.1875 L 604.023438 1732.738281 L 659.648438 1721.535156 Z M 659.648438 1537.992188 L 659.648438 1434.433594 L 604.027344 1434.449219 L 604.011719 1537.992188 Z M 1361.5 1729.355469 C 1352.480469 1738.285156 1340.050781 1743.824219 1326.359375 1743.824219 L 1268.230469 1741.921875 C 1240.859375 1741.921875 1218.488281 1719.761719 1218.488281 1692.648438 L 1218.488281 1433.53125 C 1218.488281 1419.972656 1224.078125 1407.652344 1233.089844 1398.71875 C 1242.101562 1389.800781 1254.539062 1384.261719 1268.230469 1384.261719 L 1326.359375 1384.261719 C 1340.050781 1384.261719 1352.480469 1389.800781 1361.5 1398.71875 C 1370.511719 1407.652344 1376.101562 1419.972656 1376.101562 1433.53125 L 1376.101562 1466.058594 L 1324.449219 1466.058594 L 1324.449219 1435.421875 L 1270.140625 1435.421875 L 1270.140625 1690.757812 L 1324.449219 1692.65625 L 1324.449219 1588.53125 L 1291.601562 1588.53125 L 1291.601562 1537.359375 L 1297.289062 1537.359375 C 1313.351562 1537.359375 1323.558594 1537.300781 1333.78125 1537.238281 C 1347.820312 1537.160156 1361.859375 1537.078125 1370.398438 1537.078125 L 1376.101562 1537.078125 L 1376.101562 1694.550781 C 1376.101562 1708.109375 1370.511719 1720.429688 1361.5 1729.355469 "/>
<path fill-rule="evenodd" fill="rgb(70.117188%, 70.117188%, 70.117188%)" fill-opacity="1" d="M 852.246094 1161.671875 C 811.757812 1141.628906 795.453125 1117.109375 831.753906 1091.320312 C 814.023438 1076.429688 810.164062 1059.878906 828.367188 1042.53125 C 826.226562 1028.460938 829.609375 1013.859375 836.171875 1002.320312 C 817.710938 992.609375 805.9375 981.308594 802.863281 968.210938 C 813.246094 862.058594 894.898438 793.621094 1000.601562 758.71875 C 859.058594 782.53125 737.214844 856.140625 724.371094 987.410156 C 727.445312 1000.511719 739.234375 1011.800781 757.695312 1021.511719 C 751.128906 1033.050781 747.742188 1047.660156 749.882812 1061.730469 C 731.679688 1079.089844 735.539062 1095.628906 753.269531 1110.519531 C 716.972656 1136.308594 733.273438 1160.839844 773.757812 1180.871094 C 744.667969 1203.128906 743.1875 1224.03125 767.382812 1240.53125 C 762.097656 1255.421875 762.246094 1272.789062 771.496094 1287.378906 C 771.320312 1293.730469 774.480469 1300.871094 782.078125 1308.710938 C 793.894531 1324.140625 803.703125 1336.910156 814.964844 1347.679688 C 849.632812 1347.660156 884.273438 1347.621094 918.910156 1347.570312 C 894.375 1333.53125 880.253906 1315.21875 860.566406 1289.511719 C 852.980469 1281.679688 849.820312 1274.550781 849.984375 1268.199219 C 840.722656 1253.621094 840.578125 1236.230469 845.859375 1221.339844 C 821.65625 1204.839844 823.152344 1183.929688 852.246094 1161.671875 Z M 784.183594 1185.699219 C 787.152344 1186.988281 785.652344 1186.339844 784.183594 1185.699219 "/>
<path fill-rule="evenodd" fill="rgb(0%, 0%, 0%)" fill-opacity="1" d="M 900.546875 1092.449219 C 987.046875 1099.898438 1073.328125 1107.769531 1158.96875 1116.820312 C 1057.71875 1125.539062 942.976562 1109.359375 894.261719 1091.429688 C 896.839844 1091.671875 899.503906 1091.851562 902.257812 1091.96875 Z M 1187.910156 1119.921875 C 1190.050781 1120.160156 1192.199219 1120.390625 1194.339844 1120.628906 C 1192.199219 1120.390625 1190.050781 1120.160156 1187.910156 1119.921875 Z M 1196.480469 1120.859375 C 1204.328125 1121.730469 1212.171875 1122.601562 1220.011719 1123.488281 C 1212.171875 1122.601562 1204.328125 1121.730469 1196.480469 1120.859375 Z M 1221.070312 1123.609375 C 1246.058594 1126.441406 1270.980469 1129.390625 1295.828125 1132.480469 C 1156.460938 1207.308594 844.949219 1153.609375 864.472656 1125.160156 C 870.707031 1120.320312 877.433594 1116.101562 884.175781 1112.289062 L 884.179688 1112.289062 L 884.46875 1112.121094 L 884.535156 1112.089844 L 884.617188 1112.039062 L 884.761719 1111.960938 L 884.890625 1111.890625 L 884.910156 1111.878906 L 885.054688 1111.800781 L 885.203125 1111.710938 L 885.246094 1111.691406 L 885.347656 1111.628906 L 885.601562 1111.488281 L 885.640625 1111.46875 L 885.933594 1111.308594 L 885.957031 1111.289062 L 886.078125 1111.21875 L 886.226562 1111.140625 L 886.3125 1111.101562 L 886.371094 1111.058594 L 886.519531 1110.980469 L 886.664062 1110.898438 C 889.972656 1112.199219 893.320312 1113.480469 896.699219 1114.738281 C 988.480469 1145.339844 1100.128906 1148.941406 1179.558594 1131.628906 C 1197.011719 1130.359375 1211.378906 1128.390625 1223.511719 1125.640625 C 1224.851562 1125.210938 1226.171875 1124.78125 1227.480469 1124.339844 C 1225.351562 1124.089844 1223.210938 1123.851562 1221.070312 1123.609375 Z M 1303.839844 1133.480469 C 1343.128906 1138.410156 1382.230469 1143.691406 1421.078125 1149.390625 C 1369.300781 1157.910156 1311.308594 1161.710938 1257.648438 1161.75 C 1244.410156 1167.609375 1229.621094 1172.898438 1213.648438 1177.558594 C 1363.101562 1182.578125 1521.300781 1150.488281 1547.738281 1108.5 C 1524.71875 1123.691406 1490.929688 1135.238281 1451.769531 1143.628906 L 1518.800781 1074.601562 C 1487.46875 1093.878906 1456.140625 1113.171875 1424.808594 1132.449219 C 1372.710938 1123.359375 1319.589844 1115.441406 1265.429688 1108.691406 L 1264.949219 1108.628906 C 1167.5 1096.511719 1066.691406 1088.21875 962.476562 1083.839844 C 999.542969 1071.039062 1014.828125 1049.75 1058.308594 1054.058594 C 1074.539062 1056.46875 1089.441406 1062.019531 1098.949219 1071.691406 C 1143.75 1103.101562 1188.011719 1104.96875 1226.859375 1070.421875 L 1226.980469 1070.320312 C 1235.890625 1063.601562 1243.96875 1059.019531 1251.460938 1056.109375 C 1265.429688 1056.230469 1279.21875 1056.261719 1292.75 1056.210938 C 1325.058594 1068.820312 1353.640625 1105.039062 1414.398438 1097.648438 C 1465.011719 1095.308594 1471.828125 1069.179688 1469.929688 1049.929688 C 1555.589844 1043.128906 1567.949219 1032.671875 1415.898438 1028.011719 C 1326.039062 1034.261719 1020.421875 1023 958.703125 1002.628906 C 612.78125 888.488281 1292.710938 571.53125 1541.511719 899.898438 C 1472.261719 669.761719 833.214844 658 802.863281 968.210938 C 805.9375 981.300781 817.722656 992.601562 836.1875 1002.308594 C 829.617188 1013.851562 826.230469 1028.460938 828.371094 1042.53125 C 810.167969 1059.890625 814.027344 1076.429688 831.765625 1091.320312 C 794.882812 1117.53125 812.320312 1142.429688 854.25 1162.640625 C 853.574219 1162.320312 852.910156 1161.988281 852.246094 1161.671875 C 823.15625 1183.929688 821.675781 1204.828125 845.878906 1221.328125 C 840.597656 1236.210938 840.734375 1253.589844 849.988281 1268.179688 C 849.8125 1274.53125 852.96875 1281.660156 860.566406 1289.511719 C 902.679688 1344.511719 919.316406 1365.621094 1066.949219 1383.640625 C 1238.878906 1401.570312 1446.660156 1378.171875 1478.039062 1340.261719 C 1362.570312 1396.628906 1035.128906 1385.691406 976.632812 1346.171875 C 944.617188 1334.488281 928.984375 1317.761719 921.050781 1299.238281 C 931.28125 1299.71875 942.660156 1299.441406 955.335938 1298.230469 C 1021.03125 1289.511719 1032.671875 1256.101562 1090.140625 1261.390625 C 1107.570312 1263.808594 1123.578125 1269.351562 1133.800781 1279.019531 C 1181.949219 1310.429688 1229.5 1312.300781 1271.261719 1277.761719 L 1271.378906 1277.648438 C 1352.960938 1220.441406 1370.160156 1316.601562 1472.789062 1304.980469 C 1544.191406 1301.910156 1534.46875 1257.828125 1528.941406 1242.140625 C 1588.738281 1237.941406 1519.160156 1237.878906 1406.78125 1238.558594 C 1233.039062 1239.621094 957.628906 1236.71875 901.800781 1206.339844 C 902.53125 1204.308594 903.105469 1202.578125 903.453125 1201.230469 C 897.867188 1199.871094 894.550781 1198.621094 892.253906 1197.378906 C 890.769531 1193.46875 892.296875 1189.199219 897.273438 1184.539062 C 898.945312 1183.308594 900.652344 1182.089844 902.394531 1180.910156 C 911.300781 1183.628906 920.59375 1186.199219 930.144531 1188.609375 C 982.175781 1199.78125 1040.351562 1202.300781 1095.71875 1198.101562 C 1094.820312 1198.171875 1093.921875 1198.230469 1093.011719 1198.300781 C 1111.171875 1202.089844 1130.738281 1205.460938 1150.859375 1208.410156 C 1326.5 1229.550781 1538.769531 1186.101562 1570.828125 1126.929688 C 1491 1188.171875 1290.628906 1201.960938 1165.359375 1189 L 1165.179688 1189.039062 C 1225.539062 1177.660156 1276.640625 1158.101562 1303.839844 1133.480469 Z M 889.199219 1239.410156 C 916.507812 1246.851562 952.902344 1252.21875 997.953125 1254.859375 C 988.613281 1259.390625 978.878906 1264.640625 968.613281 1270.589844 C 935.472656 1281.820312 887.855469 1278.449219 885.53125 1256.808594 C 885.128906 1253.070312 886.761719 1246.660156 889.199219 1239.410156 Z M 1148.261719 1255.570312 C 1185.441406 1255.800781 1219.550781 1256.730469 1251.011719 1255.410156 C 1258.738281 1255.078125 1266.238281 1254.761719 1273.628906 1254.449219 C 1246.578125 1271.828125 1227.089844 1296.140625 1183.949219 1277.371094 C 1171.320312 1268.769531 1159.5 1261.519531 1148.261719 1255.570312 Z M 1383.589844 1249.660156 C 1457.460938 1246.320312 1503.800781 1243.898438 1528.488281 1242.171875 C 1534.601562 1277.691406 1457.621094 1307.859375 1419.210938 1278.390625 C 1407.5 1269.660156 1399.171875 1258 1383.589844 1249.660156 Z M 901.609375 1180.660156 C 900.835938 1180.421875 900.0625 1180.179688 899.296875 1179.941406 C 900.0625 1180.179688 900.835938 1180.421875 901.609375 1180.660156 Z M 854.695312 1162.859375 C 858.511719 1164.679688 856.582031 1163.761719 854.695312 1162.859375 Z M 945.226562 1063.261719 C 960.382812 1053.820312 974.292969 1046.140625 987.472656 1040.320312 C 944.867188 1034.730469 906.679688 1027.410156 876.136719 1018.050781 C 871.671875 1030.339844 867.304688 1043.421875 867.910156 1049.480469 C 870.074219 1071.121094 914.386719 1074.488281 945.226562 1063.261719 Z M 1118.808594 1052.011719 C 1127.339844 1057.179688 1136.238281 1063.171875 1145.609375 1070.039062 C 1179.449219 1085.851562 1197.648438 1071.070312 1217.609375 1055.628906 C 1184.859375 1054.988281 1151.578125 1053.820312 1118.808594 1052.011719 Z M 1348.261719 1055.511719 C 1353.789062 1060.890625 1358.71875 1066.390625 1364.539062 1071.058594 C 1394.890625 1096.070312 1451.078125 1078.109375 1463.898438 1050.390625 C 1432.761719 1052.699219 1392.960938 1054.550781 1348.261719 1055.511719 "/>
</svg>
